<?xml version="1.0" standalone="no"?>
<!DOCTYPE svg PUBLIC "-//W3C//DTD SVG 20010904//EN"
 "http://www.w3.org/TR/2001/REC-SVG-20010904/DTD/svg10.dtd">
<svg version="1.0" xmlns="http://www.w3.org/2000/svg"
 width="221.000000pt" height="240.000000pt" viewBox="0 0 221.000000 240.000000"
 preserveAspectRatio="xMidYMid meet">

<g transform="translate(0.000000,240.000000) scale(0.100000,-0.100000)"
fill="#000000" stroke="none">
<path d="M915 2388 c-16 -5 -52 -11 -80 -13 -93 -6 -130 -20 -212 -83 -45 -34
-88 -68 -97 -77 -19 -20 -21 -60 -3 -77 11 -10 3 -20 -46 -56 -32 -24 -62 -40
-65 -37 -4 4 2 11 13 18 65 36 93 98 59 131 -23 24 -56 19 -102 -15 -42 -31
-59 -65 -48 -94 3 -9 -3 -24 -14 -35 -44 -44 -13 -106 47 -97 30 5 32 4 17
-10 -11 -11 -14 -25 -9 -47 3 -17 6 -54 5 -83 -1 -41 3 -56 19 -70 27 -23 28
-69 2 -78 -25 -8 -33 -26 -42 -100 -4 -33 -13 -81 -20 -106 -14 -55 -6 -95 20
-104 40 -12 34 -47 -30 -178 -57 -115 -49 -167 27 -167 35 0 93 24 106 43 4 7
14 7 30 0 17 -9 18 -12 6 -12 -21 -1 -96 -79 -104 -108 -12 -46 20 -93 64 -93
46 0 182 51 182 69 0 5 18 11 39 13 l39 3 -5 -35 c-2 -19 -9 -56 -15 -82 -11
-55 -5 -85 22 -93 19 -6 19 -6 0 -25 -26 -26 -35 -77 -35 -200 0 -89 3 -110
21 -141 12 -20 38 -74 59 -120 44 -97 62 -123 112 -162 62 -46 123 -29 123 35
0 17 -11 56 -24 87 -36 82 -71 273 -56 302 7 12 10 37 7 55 -6 38 -3 41 21 18
12 -13 27 -15 75 -9 33 3 77 13 98 21 33 14 40 14 61 0 21 -14 41 -14 143 -6
153 13 165 13 173 5 3 -3 6 -56 6 -118 0 -92 -4 -128 -27 -204 -42 -142 -33
-203 29 -203 36 0 66 38 101 127 81 207 123 450 94 549 -5 17 -7 61 -4 97 5
61 7 66 32 70 14 3 41 -1 60 -9 70 -29 121 -7 157 69 27 60 30 91 10 138 -7
19 -16 58 -20 88 -4 29 -21 81 -37 114 -29 55 -30 65 -24 128 7 67 8 69 35 69
16 0 36 7 44 16 22 21 20 89 -3 140 -16 35 -17 44 -5 65 7 13 13 33 14 44 0
33 -40 139 -59 155 -10 9 -21 27 -24 42 -11 43 -93 134 -216 240 -136 116
-153 126 -234 139 -42 6 -68 16 -79 30 -10 12 -35 25 -55 30 -51 12 -341 10
-378 -3z m626 -185 c13 -16 12 -17 -3 -4 -10 7 -18 15 -18 17 0 8 8 3 21 -13z
m-1096 -53 c-3 -5 -20 -19 -38 -30 -32 -22 -32 -22 3 9 37 32 45 37 35 21z
m220 -89 c-6 -5 -25 10 -25 20 0 5 6 4 14 -3 8 -7 12 -15 11 -17z m45 23 c0
-8 -19 -13 -24 -6 -3 5 1 9 9 9 8 0 15 -2 15 -3z m-50 -107 c0 -2 -9 -12 -19
-21 -14 -13 -21 -14 -27 -5 -4 7 -3 10 3 6 6 -4 16 0 23 8 12 14 20 19 20 12z
m-210 -71 c0 -11 -19 -15 -25 -6 -3 5 1 10 9 10 9 0 16 -2 16 -4z m40 -69 c0
-2 -13 -16 -30 -32 -29 -28 -30 -28 -30 -7 0 14 9 26 23 32 24 9 37 12 37 7z
m369 -185 c44 2 62 -2 75 -15 10 -9 24 -17 32 -17 7 0 23 -19 36 -42 24 -47
36 -173 24 -250 -7 -42 -9 -44 -84 -81 -42 -20 -92 -37 -109 -37 -19 0 -41 -8
-52 -19 -37 -37 -53 -40 -91 -20 -19 10 -46 24 -60 31 -14 7 -33 21 -42 31
-10 9 -26 17 -36 17 -26 0 -46 77 -26 97 22 23 18 89 -8 113 l-22 20 22 20
c12 12 22 27 22 35 0 8 7 15 15 15 23 0 96 38 125 65 41 38 81 55 102 44 10
-6 45 -9 77 -7z m745 -4 c3 -13 24 -34 46 -47 22 -14 53 -39 69 -55 35 -36 41
-84 22 -184 -7 -34 -9 -77 -6 -95 l7 -33 -55 -14 c-30 -7 -68 -10 -83 -6 -16
4 -44 10 -62 13 -43 7 -93 66 -131 157 -17 39 -39 89 -51 111 -11 21 -20 56
-20 76 0 50 38 79 107 80 26 1 62 5 78 9 55 14 72 11 79 -12z m-336 -291 c12
-13 33 -52 47 -87 22 -55 23 -68 13 -96 -9 -25 -9 -39 0 -59 7 -14 12 -35 12
-46 0 -20 -1 -20 -44 5 -25 14 -54 26 -66 26 -25 0 -72 -23 -89 -44 -25 -30
-39 -7 -46 82 -6 72 -5 88 9 97 9 7 25 33 36 58 18 41 68 86 96 87 6 0 20 -10
32 -23z m519 -39 c-3 -8 -6 -5 -6 6 -1 11 2 17 5 13 3 -3 4 -12 1 -19z m-963
-383 c14 -14 34 -25 46 -25 17 0 20 -6 20 -39 0 -22 3 -46 6 -54 3 -8 -2 -17
-13 -21 -10 -4 -19 -2 -22 5 -2 6 -12 19 -22 27 -11 10 -19 30 -19 49 0 41
-25 66 -61 61 -24 -4 -26 -2 -15 14 14 24 46 17 80 -17z m746 -25 c0 -5 -2
-10 -4 -10 -3 0 -8 5 -11 10 -3 6 -1 10 4 10 6 0 11 -4 11 -10z m78 -68 c2
-23 -1 -32 -11 -32 -22 0 -39 27 -32 50 10 33 39 21 43 -18z m-163 -56 c17
-12 16 -14 -13 -18 -18 -2 -32 -3 -32 -2 0 10 13 34 19 34 4 0 16 -6 26 -14z
m-655 -76 c0 -12 -8 -12 -35 0 -18 8 -17 9 8 9 15 1 27 -3 27 -9z"/>
<path d="M231 1910 c-18 -4 -37 -14 -42 -21 -4 -8 -5 -116 -2 -241 5 -202 4
-228 -10 -243 -22 -22 -21 -59 3 -139 21 -68 39 -86 84 -86 43 0 59 27 51 84
-13 88 -5 455 11 516 32 123 9 154 -95 130z"/>
</g>
</svg>
