<?xml version="1.0" standalone="no"?>
<!DOCTYPE svg PUBLIC "-//W3C//DTD SVG 20010904//EN"
 "http://www.w3.org/TR/2001/REC-SVG-20010904/DTD/svg10.dtd">
<svg version="1.0" xmlns="http://www.w3.org/2000/svg"
 width="221.000000pt" height="240.000000pt" viewBox="0 0 221.000000 240.000000"
 preserveAspectRatio="xMidYMid meet">

<g transform="translate(0.000000,240.000000) scale(0.100000,-0.100000)"
fill="#000000" stroke="none">
<path d="M915 2388 c-16 -5 -52 -11 -80 -13 -93 -6 -130 -20 -212 -83 -45 -34
-88 -68 -97 -77 -19 -20 -21 -60 -3 -77 11 -10 3 -20 -46 -56 -32 -24 -62 -40
-65 -37 -4 4 2 11 13 18 65 36 93 98 59 131 -23 24 -56 19 -102 -15 -42 -31
-59 -65 -48 -94 3 -9 -3 -24 -14 -35 -44 -44 -13 -106 47 -97 30 5 32 4 17
-10 -11 -11 -14 -25 -9 -47 3 -17 6 -54 5 -83 -1 -41 3 -56 19 -70 27 -23 28
-69 2 -78 -25 -8 -33 -26 -42 -100 -4 -33 -13 -81 -20 -106 -14 -55 -6 -95 20
-104 40 -12 34 -47 -30 -178 -57 -115 -49 -167 27 -167 35 0 93 24 106 43 4 7
14 7 30 0 17 -9 18 -12 6 -12 -21 -1 -96 -79 -104 -108 -12 -46 20 -93 64 -93
46 0 182 51 182 69 0 5 18 11 39 13 l39 3 -5 -35 c-2 -19 -9 -56 -15 -82 -11
-55 -5 -85 22 -93 19 -6 19 -6 0 -25 -26 -26 -35 -77 -35 -200 0 -89 3 -110
21 -141 12 -20 38 -74 59 -120 44 -97 62 -123 112 -162 62 -46 123 -29 123 35
0 17 -11 56 -24 87 -36 82 -71 273 -56 302 7 12 10 37 7 55 -6 38 -3 41 21 18
12 -13 27 -15 75 -9 33 3 77 13 98 21 33 14 40 14 61 0 21 -14 41 -14 143 -6
153 13 165 13 173 5 3 -3 6 -56 6 -118 0 -92 -4 -128 -27 -204 -42 -142 -33
-203 29 -203 36 0 66 38 101 127 81 207 123 450 94 549 -5 17 -7 61 -4 97 5
61 7 66 32 70 14 3 41 -1 60 -9 70 -29 121 -7 157 69 27 60 30 91 10 138 -7
19 -16 58 -20 88 -4 29 -21 81 -37 114 -29 55 -30 65 -24 128 7 67 8 69 35 69
16 0 36 7 44 16 22 21 20 89 -3 140 -16 35 -17 44 -5 65 7 13 13 33 14 44 0
33 -40 139 -59 155 -10 9 -21 27 -24 42 -11 43 -93 134 -216 240 -136 116
-153 126 -234 139 -42 6 -68 16 -79 30 -10 12 -35 25 -55 30 -51 12 -341 10
-378 -3z m236 -22 c19 -7 59 -17 90 -20 43 -6 58 -12 62 -26 3 -13 21 -21 63
-30 117 -23 127 -28 250 -134 133 -114 214 -205 214 -241 0 -12 9 -29 21 -36
11 -8 29 -38 39 -68 17 -48 18 -56 5 -82 -19 -37 -19 -48 5 -100 23 -52 26
-89 6 -89 -17 0 -26 22 -26 60 0 27 -15 48 -26 37 -3 -3 -14 -69 -24 -148
l-18 -144 33 -65 c20 -40 37 -93 44 -139 7 -41 17 -81 23 -88 15 -19 -17 -99
-48 -120 -20 -13 -27 -13 -40 -2 -10 8 -41 14 -75 14 -41 0 -59 4 -59 12 0 13
-31 17 -110 14 -79 -4 -83 -7 -77 -60 3 -25 9 -55 13 -65 5 -12 4 -17 -3 -13
-6 4 -16 27 -22 51 -6 25 -19 49 -28 55 -17 9 -16 11 1 30 12 13 16 28 12 45
-5 20 -1 25 20 30 23 6 25 10 19 39 -9 42 -22 57 -49 57 -46 0 -61 -45 -26
-80 16 -16 17 -20 5 -20 -10 0 -15 -11 -16 -32 -1 -32 -1 -32 -12 9 -7 23 -15
45 -19 49 -5 4 -8 20 -8 35 0 15 -5 31 -10 34 -14 9 -3 25 27 36 l25 9 -26 30
c-14 17 -33 56 -43 87 -24 76 -77 133 -123 133 -56 0 -118 -44 -143 -102 l-22
-50 0 144 c0 142 -1 143 -31 193 -19 31 -38 51 -52 53 -12 2 -22 10 -22 18 0
8 -10 14 -22 14 -18 0 -20 2 -8 10 28 18 0 22 -40 6 -48 -19 -74 -20 -99 -5
-27 17 -83 3 -131 -34 -68 -52 -113 -77 -139 -77 -23 0 -24 1 -6 20 39 43 3
30 -52 -18 -32 -28 -60 -47 -61 -41 -9 24 10 58 37 67 17 6 37 24 45 41 21 39
20 44 -4 38 -28 -7 -25 10 10 63 35 52 36 57 13 63 -10 2 -32 -10 -50 -27 -32
-29 -33 -29 -33 -8 0 15 9 26 26 32 46 18 85 51 130 113 41 56 56 97 35 97 -6
0 -36 -24 -68 -53 -71 -65 -118 -99 -127 -90 -3 3 4 11 17 17 25 13 35 55 17
66 -16 10 69 78 158 127 37 20 88 48 114 64 29 17 54 26 68 22 14 -4 30 2 48
20 15 13 37 28 50 32 27 8 29 25 2 25 -11 0 -20 5 -20 10 0 6 -8 10 -17 10 -9
0 -25 7 -35 17 -16 15 -18 15 -18 0 0 -9 -16 -28 -35 -42 -35 -27 -183 -90
-192 -82 -2 3 32 32 76 66 44 34 83 57 86 51 10 -16 44 -11 54 8 7 13 18 18
38 15 15 -2 78 9 138 26 131 35 133 35 176 17z m-706 -216 c-3 -5 -20 -19 -38
-30 -32 -22 -32 -22 3 9 37 32 45 37 35 21z m414 -498 c44 2 62 -2 75 -15 10
-9 24 -17 32 -17 7 0 23 -19 36 -42 24 -47 36 -173 24 -250 -7 -42 -9 -44 -84
-81 -42 -20 -92 -37 -109 -37 -19 0 -41 -8 -52 -19 -37 -37 -53 -40 -91 -20
-19 10 -46 24 -60 31 -14 7 -33 21 -42 31 -10 9 -26 17 -36 17 -26 0 -46 77
-26 97 22 23 18 89 -8 113 l-22 20 22 20 c12 12 22 27 22 35 0 8 7 15 15 15
23 0 96 38 125 65 41 38 81 55 102 44 10 -6 45 -9 77 -7z m-369 -91 c0 -10 -9
-21 -20 -24 -14 -4 -20 -14 -20 -35 0 -54 12 -93 26 -88 9 3 14 -2 14 -14 0
-10 -9 -22 -20 -25 -24 -8 -24 -9 -5 -71 20 -65 20 -175 1 -168 -8 3 -22 -8
-34 -28 -15 -22 -22 -27 -22 -15 0 26 -19 21 -26 -8 -6 -23 -44 -38 -44 -16 0
19 64 131 76 131 16 0 27 31 14 44 -15 15 -12 26 5 20 17 -7 20 15 6 62 -5 19
-5 37 1 48 8 14 5 23 -11 40 -22 21 -22 21 -37 2 -17 -24 -18 -14 -3 38 8 31
80 126 95 126 2 0 4 -8 4 -19z m778 -204 c12 -13 33 -52 47 -87 22 -55 23 -68
13 -96 -9 -25 -9 -39 0 -59 7 -14 12 -35 12 -46 0 -20 -1 -20 -44 5 -25 14
-54 26 -66 26 -25 0 -72 -23 -89 -44 -25 -30 -39 -7 -46 82 -6 72 -5 88 9 97
9 7 25 33 36 58 18 41 68 86 96 87 6 0 20 -10 32 -23z m-230 -155 c2 -13 -7
-32 -22 -47 -33 -32 -33 -39 -1 -31 34 9 40 -9 26 -86 -12 -69 -8 -82 15 -49
12 16 19 20 27 12 20 -20 64 -12 102 19 21 17 39 30 42 30 2 0 21 -11 43 -25
22 -14 43 -25 47 -25 22 0 83 -132 83 -180 0 -33 -78 -44 -109 -16 -23 21 -33
20 -63 -3 -22 -17 -32 -19 -86 -11 -34 4 -66 11 -72 15 -5 3 -10 33 -10 66 0
80 -23 81 -39 2 -11 -57 -43 -114 -56 -101 -11 11 -25 80 -25 128 0 25 -7 67
-15 94 -20 64 -19 73 5 81 34 11 25 35 -10 29 -19 -4 -36 -1 -47 7 -15 13 -16
11 -10 -21 3 -19 13 -57 21 -83 14 -45 14 -48 -1 -45 -10 2 -24 17 -33 33 -8
17 -16 32 -18 35 -2 2 -7 -2 -12 -10 -8 -13 -11 -13 -25 1 -19 19 -34 106 -17
95 6 -4 19 5 28 19 12 18 25 25 49 25 19 0 61 15 97 34 70 38 82 39 86 8z
m-448 -42 c28 0 53 -35 41 -58 -12 -22 -38 -35 -52 -26 -5 3 -9 16 -9 29 0 19
-5 23 -26 20 -23 -2 -25 0 -18 29 10 46 16 52 32 28 8 -12 22 -22 32 -22z m87
-77 c-21 -21 -27 -15 -16 16 7 19 12 22 21 13 9 -9 8 -16 -5 -29z m28 -89
c-16 -25 -45 -33 -45 -11 0 7 12 30 28 52 l27 40 3 -28 c2 -16 -4 -39 -13 -53z
m-140 -1 c-6 -34 -5 -36 8 -20 19 23 27 21 27 -8 0 -17 -9 -29 -30 -40 l-30
-16 0 35 c0 31 17 86 27 86 2 0 1 -17 -2 -37z m-51 -25 c-16 -53 -25 -69 -40
-75 -33 -12 -33 20 -1 58 37 43 51 49 41 17z m310 -33 c14 -14 34 -25 46 -25
17 0 20 -6 20 -39 0 -22 3 -46 6 -54 3 -8 -2 -17 -13 -21 -10 -4 -19 -2 -22 5
-2 6 -12 19 -22 27 -11 10 -19 30 -19 49 0 41 -25 66 -61 61 -24 -4 -26 -2
-15 14 14 24 46 17 80 -17z m746 -25 c0 -5 -2 -10 -4 -10 -3 0 -8 5 -11 10 -3
6 -1 10 4 10 6 0 11 -4 11 -10z m-795 -97 c3 -13 12 -23 20 -23 8 0 15 -4 15
-10 0 -5 -9 -10 -19 -10 -11 0 -26 -3 -35 -6 -13 -5 -14 -1 -6 28 6 18 11 49
11 68 2 33 2 33 6 5 2 -16 6 -40 8 -52z m873 29 c2 -23 -1 -32 -11 -32 -22 0
-39 27 -32 50 10 33 39 21 43 -18z m-163 -56 c17 -12 16 -14 -13 -18 -18 -2
-32 -3 -32 -2 0 10 13 34 19 34 4 0 16 -6 26 -14z m135 -41 c23 -12 30 -24 36
-62 17 -115 -68 -464 -138 -564 l-17 -24 0 23 c-1 13 11 65 26 115 24 80 28
109 27 222 0 77 -4 138 -11 150 -6 11 -32 26 -57 34 -42 12 -49 12 -66 -4 -12
-11 -28 -15 -42 -12 -13 4 -52 2 -88 -3 -90 -13 -102 0 -79 83 12 45 38 49 71
12 26 -30 38 -31 72 -4 l27 21 23 -21 c27 -26 52 -27 65 -3 10 15 10 15 11 -4
0 -21 17 -44 33 -44 5 0 7 12 4 27 -4 20 1 34 16 49 27 27 49 29 87 9z m-689
-54 c18 -10 24 -10 40 5 18 17 20 16 40 -4 24 -27 46 -28 54 -3 10 34 40 53
67 42 15 -6 31 -5 44 1 16 9 17 8 7 -3 -7 -7 -13 -30 -13 -51 0 -31 -4 -38
-19 -38 -10 0 -34 -6 -52 -14 -57 -23 -116 -28 -123 -11 -3 8 -14 15 -24 15
-26 0 -79 99 -60 111 9 6 14 1 16 -14 2 -13 12 -29 23 -36z m-101 19 c0 -12
-8 -12 -35 0 -18 8 -17 9 8 9 15 1 27 -3 27 -9z m-40 -62 c0 -23 -52 -123 -57
-110 -3 7 0 19 6 26 6 7 9 20 6 28 -8 21 12 68 30 68 8 0 15 -6 15 -12z m50
-69 c0 -54 12 -78 23 -46 2 6 8 8 13 4 5 -5 1 -15 -10 -22 -21 -16 -22 -8 18
-195 13 -63 33 -135 45 -160 22 -49 26 -70 12 -70 -14 0 -101 89 -101 103 0 7
-23 57 -50 111 -67 135 -70 151 -29 201 18 22 29 31 25 20 -4 -11 -10 -35 -13
-54 -5 -26 -3 -33 8 -29 17 6 37 85 38 156 1 74 21 57 21 -19z"/>
<path d="M1055 2320 c3 -5 11 -10 16 -10 6 0 7 5 4 10 -3 6 -11 10 -16 10 -6
0 -7 -4 -4 -10z"/>
<path d="M1489 2226 c8 -9 28 -27 45 -38 l31 -22 -25 28 c-14 15 -34 33 -45
39 -18 9 -19 9 -6 -7z"/>
<path d="M697 2073 c-18 -27 -49 -70 -67 -98 l-34 -50 41 35 c23 19 53 43 68
54 28 19 65 72 65 94 0 29 -40 9 -73 -35z"/>
<path d="M653 2095 c-3 -9 -3 -19 1 -22 7 -7 36 16 36 28 0 15 -30 10 -37 -6z"/>
<path d="M1740 1945 c13 -14 25 -25 27 -25 2 0 -4 11 -13 25 -9 14 -21 25 -27
25 -6 0 0 -11 13 -25z"/>
<path d="M1140 1890 c0 -5 7 -10 15 -10 8 0 15 5 15 10 0 6 -7 10 -15 10 -8 0
-15 -4 -15 -10z"/>
<path d="M570 1830 c-17 -24 -18 -30 -6 -30 14 0 46 36 46 52 0 17 -20 6 -40
-22z"/>
<path d="M1760 1846 c0 -8 5 -18 10 -21 6 -3 10 3 10 14 0 12 -4 21 -10 21 -5
0 -10 -6 -10 -14z"/>
<path d="M1824 1801 c0 -27 -6 -56 -13 -65 -12 -15 -15 -15 -27 1 -11 15 -13
15 -14 3 0 -19 54 -80 71 -80 8 0 10 24 7 85 -5 94 -24 138 -24 56z"/>
<path d="M1528 1833 c7 -3 16 -2 19 1 4 3 -2 6 -13 5 -11 0 -14 -3 -6 -6z"/>
<path d="M1440 1700 c-85 -8 -127 -33 -141 -84 -13 -46 -4 -109 22 -154 10
-18 33 -67 51 -109 33 -80 82 -144 129 -169 42 -21 46 -17 13 18 -34 38 -5 19
47 -30 l37 -34 80 28 c86 29 118 27 107 -5 -8 -25 7 -34 29 -18 16 12 16 16
-9 62 -24 45 -26 56 -20 115 4 36 8 90 10 121 1 31 5 60 8 66 9 14 -64 96
-119 134 -45 31 -56 49 -29 49 8 0 15 5 15 10 0 11 -122 11 -230 0z m164 -52
c3 -13 24 -34 46 -47 22 -14 53 -39 69 -55 35 -36 41 -84 22 -184 -7 -34 -9
-77 -6 -95 l6 -32 -65 -19 c-60 -17 -66 -17 -88 -2 -12 9 -35 16 -49 16 -37 0
-90 63 -128 154 -17 39 -39 89 -51 111 -11 21 -20 56 -20 76 0 50 38 79 107
80 26 1 62 5 78 9 55 14 72 11 79 -12z"/>
<path d="M1115 1621 c-6 -11 9 -23 19 -14 9 9 7 23 -3 23 -6 0 -12 -4 -16 -9z"/>
<path d="M1830 1116 c0 -8 5 -18 10 -21 6 -3 10 1 10 9 0 8 -4 18 -10 21 -5 3
-10 -1 -10 -9z"/>
<path d="M950 1129 c0 -5 5 -7 10 -4 6 3 10 8 10 11 0 2 -4 4 -10 4 -5 0 -10
-5 -10 -11z"/>
<path d="M975 1079 c-10 -15 3 -25 16 -12 7 7 7 13 1 17 -6 3 -14 1 -17 -5z"/>
<path d="M231 1910 c-18 -4 -37 -14 -42 -21 -4 -8 -5 -116 -2 -241 5 -202 4
-228 -10 -243 -22 -22 -21 -59 3 -139 21 -68 39 -86 84 -86 43 0 59 27 51 84
-13 88 -5 455 11 516 32 123 9 154 -95 130z m46 -107 c-17 -67 -27 -486 -13
-542 11 -46 -13 -38 -29 10 -26 73 -28 99 -9 99 16 0 16 18 12 245 -5 231 -4
245 13 240 9 -3 20 -1 24 5 15 24 16 -1 2 -57z"/>
</g>
</svg>
